<mxfile host="app.diagrams.net" agent="Mozilla/5.0 (X11; Linux x86_64; rv:133.0) Gecko/20100101 Firefox/133.0" version="24.9.2">
  <diagram id="C5RBs43oDa-KdzZeNtuy" name="Page-1">
    <mxGraphModel dx="1239" dy="635" grid="1" gridSize="10" guides="1" tooltips="1" connect="1" arrows="1" fold="1" page="1" pageScale="1" pageWidth="827" pageHeight="1169" math="0" shadow="0">
      <root>
        <mxCell id="WIyWlLk6GJQsqaUBKTNV-0" />
        <mxCell id="WIyWlLk6GJQsqaUBKTNV-1" parent="WIyWlLk6GJQsqaUBKTNV-0" />
        <mxCell id="WIyWlLk6GJQsqaUBKTNV-2" value="" style="rounded=0;html=1;jettySize=auto;orthogonalLoop=1;fontSize=11;endArrow=block;endFill=0;endSize=8;strokeWidth=1;shadow=0;labelBackgroundColor=none;edgeStyle=orthogonalEdgeStyle;" parent="WIyWlLk6GJQsqaUBKTNV-1" source="WIyWlLk6GJQsqaUBKTNV-3" target="WIyWlLk6GJQsqaUBKTNV-6" edge="1">
          <mxGeometry relative="1" as="geometry" />
        </mxCell>
        <mxCell id="WIyWlLk6GJQsqaUBKTNV-3" value="Создается платеж" style="rounded=1;whiteSpace=wrap;html=1;fontSize=12;glass=0;strokeWidth=1;shadow=0;" parent="WIyWlLk6GJQsqaUBKTNV-1" vertex="1">
          <mxGeometry x="130" y="100" width="120" height="40" as="geometry" />
        </mxCell>
        <mxCell id="T6HtqVJGuuVrWN2Bbdnl-2" value="" style="edgeStyle=orthogonalEdgeStyle;rounded=0;orthogonalLoop=1;jettySize=auto;html=1;" edge="1" parent="WIyWlLk6GJQsqaUBKTNV-1" source="WIyWlLk6GJQsqaUBKTNV-6" target="T6HtqVJGuuVrWN2Bbdnl-1">
          <mxGeometry relative="1" as="geometry" />
        </mxCell>
        <mxCell id="T6HtqVJGuuVrWN2Bbdnl-3" value="Другое" style="edgeLabel;html=1;align=center;verticalAlign=middle;resizable=0;points=[];" vertex="1" connectable="0" parent="T6HtqVJGuuVrWN2Bbdnl-2">
          <mxGeometry x="0.2083" relative="1" as="geometry">
            <mxPoint as="offset" />
          </mxGeometry>
        </mxCell>
        <mxCell id="T6HtqVJGuuVrWN2Bbdnl-5" value="" style="edgeStyle=orthogonalEdgeStyle;rounded=0;orthogonalLoop=1;jettySize=auto;html=1;" edge="1" parent="WIyWlLk6GJQsqaUBKTNV-1" source="WIyWlLk6GJQsqaUBKTNV-6" target="T6HtqVJGuuVrWN2Bbdnl-4">
          <mxGeometry relative="1" as="geometry" />
        </mxCell>
        <mxCell id="T6HtqVJGuuVrWN2Bbdnl-6" value="QR код" style="edgeLabel;html=1;align=center;verticalAlign=middle;resizable=0;points=[];" vertex="1" connectable="0" parent="T6HtqVJGuuVrWN2Bbdnl-5">
          <mxGeometry x="-0.351" relative="1" as="geometry">
            <mxPoint as="offset" />
          </mxGeometry>
        </mxCell>
        <mxCell id="T6HtqVJGuuVrWN2Bbdnl-8" value="" style="edgeStyle=orthogonalEdgeStyle;rounded=0;orthogonalLoop=1;jettySize=auto;html=1;" edge="1" parent="WIyWlLk6GJQsqaUBKTNV-1" source="WIyWlLk6GJQsqaUBKTNV-6" target="T6HtqVJGuuVrWN2Bbdnl-7">
          <mxGeometry relative="1" as="geometry" />
        </mxCell>
        <mxCell id="T6HtqVJGuuVrWN2Bbdnl-9" value="Эквайринг" style="edgeLabel;html=1;align=center;verticalAlign=middle;resizable=0;points=[];" vertex="1" connectable="0" parent="T6HtqVJGuuVrWN2Bbdnl-8">
          <mxGeometry x="-0.3302" y="2" relative="1" as="geometry">
            <mxPoint as="offset" />
          </mxGeometry>
        </mxCell>
        <mxCell id="WIyWlLk6GJQsqaUBKTNV-6" value="&lt;div&gt;Тип&amp;nbsp;&lt;/div&gt;&lt;div&gt;платежа&lt;/div&gt;" style="rhombus;whiteSpace=wrap;html=1;shadow=0;fontFamily=Helvetica;fontSize=12;align=center;strokeWidth=1;spacing=6;spacingTop=-4;" parent="WIyWlLk6GJQsqaUBKTNV-1" vertex="1">
          <mxGeometry x="140" y="180" width="100" height="80" as="geometry" />
        </mxCell>
        <mxCell id="T6HtqVJGuuVrWN2Bbdnl-1" value="&lt;div&gt;???&lt;/div&gt;" style="rounded=1;whiteSpace=wrap;html=1;shadow=0;strokeWidth=1;spacing=6;spacingTop=-4;" vertex="1" parent="WIyWlLk6GJQsqaUBKTNV-1">
          <mxGeometry x="10" y="210" width="60" height="20" as="geometry" />
        </mxCell>
        <mxCell id="T6HtqVJGuuVrWN2Bbdnl-4" value="Формируется QR" style="rounded=1;whiteSpace=wrap;html=1;shadow=0;strokeWidth=1;spacing=6;spacingTop=-4;" vertex="1" parent="WIyWlLk6GJQsqaUBKTNV-1">
          <mxGeometry x="330" y="205" width="110" height="30" as="geometry" />
        </mxCell>
        <mxCell id="T6HtqVJGuuVrWN2Bbdnl-11" value="" style="edgeStyle=orthogonalEdgeStyle;rounded=0;orthogonalLoop=1;jettySize=auto;html=1;" edge="1" parent="WIyWlLk6GJQsqaUBKTNV-1" source="T6HtqVJGuuVrWN2Bbdnl-7" target="T6HtqVJGuuVrWN2Bbdnl-10">
          <mxGeometry relative="1" as="geometry" />
        </mxCell>
        <mxCell id="T6HtqVJGuuVrWN2Bbdnl-7" value="Формируется ссылка на оплату" style="rounded=1;whiteSpace=wrap;html=1;shadow=0;strokeWidth=1;spacing=6;spacingTop=-4;" vertex="1" parent="WIyWlLk6GJQsqaUBKTNV-1">
          <mxGeometry x="135" y="310" width="110" height="50" as="geometry" />
        </mxCell>
        <mxCell id="T6HtqVJGuuVrWN2Bbdnl-13" value="" style="edgeStyle=orthogonalEdgeStyle;rounded=0;orthogonalLoop=1;jettySize=auto;html=1;" edge="1" parent="WIyWlLk6GJQsqaUBKTNV-1" source="T6HtqVJGuuVrWN2Bbdnl-10" target="T6HtqVJGuuVrWN2Bbdnl-12">
          <mxGeometry relative="1" as="geometry" />
        </mxCell>
        <mxCell id="T6HtqVJGuuVrWN2Bbdnl-47" style="edgeStyle=orthogonalEdgeStyle;rounded=0;orthogonalLoop=1;jettySize=auto;html=1;entryX=0.5;entryY=1;entryDx=0;entryDy=0;" edge="1" parent="WIyWlLk6GJQsqaUBKTNV-1" source="T6HtqVJGuuVrWN2Bbdnl-10" target="T6HtqVJGuuVrWN2Bbdnl-14">
          <mxGeometry relative="1" as="geometry" />
        </mxCell>
        <mxCell id="T6HtqVJGuuVrWN2Bbdnl-10" value="Регистрируется ответ по оплате" style="whiteSpace=wrap;html=1;rounded=1;shadow=0;strokeWidth=1;spacing=6;spacingTop=-4;" vertex="1" parent="WIyWlLk6GJQsqaUBKTNV-1">
          <mxGeometry x="135" y="390" width="110" height="35" as="geometry" />
        </mxCell>
        <mxCell id="T6HtqVJGuuVrWN2Bbdnl-12" value="&lt;div&gt;Обновляется&lt;/div&gt;&lt;div&gt;CitizenRequest&lt;br&gt;&lt;/div&gt;" style="rounded=1;whiteSpace=wrap;html=1;shadow=0;strokeWidth=1;spacing=6;spacingTop=-4;" vertex="1" parent="WIyWlLk6GJQsqaUBKTNV-1">
          <mxGeometry x="130" y="460" width="120" height="60" as="geometry" />
        </mxCell>
        <mxCell id="T6HtqVJGuuVrWN2Bbdnl-15" value="" style="edgeStyle=orthogonalEdgeStyle;rounded=0;orthogonalLoop=1;jettySize=auto;html=1;" edge="1" parent="WIyWlLk6GJQsqaUBKTNV-1" source="T6HtqVJGuuVrWN2Bbdnl-14" target="T6HtqVJGuuVrWN2Bbdnl-7">
          <mxGeometry relative="1" as="geometry" />
        </mxCell>
        <mxCell id="T6HtqVJGuuVrWN2Bbdnl-14" value="Учитывая конкретную реализацию эквайринга в зависимости от организации" style="rounded=1;whiteSpace=wrap;html=1;" vertex="1" parent="WIyWlLk6GJQsqaUBKTNV-1">
          <mxGeometry x="295" y="285" width="110" height="100" as="geometry" />
        </mxCell>
        <mxCell id="T6HtqVJGuuVrWN2Bbdnl-17" value="" style="edgeStyle=orthogonalEdgeStyle;rounded=0;orthogonalLoop=1;jettySize=auto;html=1;" edge="1" parent="WIyWlLk6GJQsqaUBKTNV-1" source="T6HtqVJGuuVrWN2Bbdnl-16" target="T6HtqVJGuuVrWN2Bbdnl-14">
          <mxGeometry relative="1" as="geometry" />
        </mxCell>
        <mxCell id="T6HtqVJGuuVrWN2Bbdnl-18" value="" style="edgeStyle=orthogonalEdgeStyle;rounded=0;orthogonalLoop=1;jettySize=auto;html=1;" edge="1" parent="WIyWlLk6GJQsqaUBKTNV-1" source="T6HtqVJGuuVrWN2Bbdnl-16" target="T6HtqVJGuuVrWN2Bbdnl-12">
          <mxGeometry relative="1" as="geometry" />
        </mxCell>
        <mxCell id="T6HtqVJGuuVrWN2Bbdnl-46" style="edgeStyle=orthogonalEdgeStyle;rounded=0;orthogonalLoop=1;jettySize=auto;html=1;entryX=0.5;entryY=1;entryDx=0;entryDy=0;" edge="1" parent="WIyWlLk6GJQsqaUBKTNV-1" source="T6HtqVJGuuVrWN2Bbdnl-16" target="T6HtqVJGuuVrWN2Bbdnl-38">
          <mxGeometry relative="1" as="geometry" />
        </mxCell>
        <mxCell id="T6HtqVJGuuVrWN2Bbdnl-16" value="&lt;div&gt;Job периодически&lt;/div&gt;&lt;div&gt;запрашивает у банка состояние платежки&lt;/div&gt;" style="rounded=1;whiteSpace=wrap;html=1;" vertex="1" parent="WIyWlLk6GJQsqaUBKTNV-1">
          <mxGeometry x="290" y="460" width="120" height="60" as="geometry" />
        </mxCell>
        <mxCell id="T6HtqVJGuuVrWN2Bbdnl-21" value="" style="edgeStyle=orthogonalEdgeStyle;rounded=0;orthogonalLoop=1;jettySize=auto;html=1;" edge="1" parent="WIyWlLk6GJQsqaUBKTNV-1" source="T6HtqVJGuuVrWN2Bbdnl-19" target="WIyWlLk6GJQsqaUBKTNV-3">
          <mxGeometry relative="1" as="geometry" />
        </mxCell>
        <mxCell id="T6HtqVJGuuVrWN2Bbdnl-19" value="CitizenRequest запрашивает метод олаты" style="rounded=1;whiteSpace=wrap;html=1;" vertex="1" parent="WIyWlLk6GJQsqaUBKTNV-1">
          <mxGeometry x="130" width="120" height="60" as="geometry" />
        </mxCell>
        <mxCell id="T6HtqVJGuuVrWN2Bbdnl-39" style="edgeStyle=orthogonalEdgeStyle;rounded=0;orthogonalLoop=1;jettySize=auto;html=1;" edge="1" parent="WIyWlLk6GJQsqaUBKTNV-1" source="T6HtqVJGuuVrWN2Bbdnl-22" target="T6HtqVJGuuVrWN2Bbdnl-38">
          <mxGeometry relative="1" as="geometry" />
        </mxCell>
        <mxCell id="T6HtqVJGuuVrWN2Bbdnl-22" value="банк для ТГУ" style="rounded=1;whiteSpace=wrap;html=1;" vertex="1" parent="WIyWlLk6GJQsqaUBKTNV-1">
          <mxGeometry x="700" y="280" width="100" height="30" as="geometry" />
        </mxCell>
        <mxCell id="T6HtqVJGuuVrWN2Bbdnl-34" value="" style="edgeStyle=orthogonalEdgeStyle;rounded=0;orthogonalLoop=1;jettySize=auto;html=1;" edge="1" parent="WIyWlLk6GJQsqaUBKTNV-1" source="T6HtqVJGuuVrWN2Bbdnl-33" target="T6HtqVJGuuVrWN2Bbdnl-14">
          <mxGeometry relative="1" as="geometry" />
        </mxCell>
        <mxCell id="T6HtqVJGuuVrWN2Bbdnl-33" value="&lt;div&gt;Организация&lt;/div&gt;&lt;div&gt;работает с одним или несколькими эквайрингами, Для каждой организации своя сумма комиссии&lt;br&gt;&lt;/div&gt;" style="rounded=1;whiteSpace=wrap;html=1;" vertex="1" parent="WIyWlLk6GJQsqaUBKTNV-1">
          <mxGeometry x="430" y="262.5" width="90" height="145" as="geometry" />
        </mxCell>
        <mxCell id="T6HtqVJGuuVrWN2Bbdnl-40" value="" style="edgeStyle=orthogonalEdgeStyle;rounded=0;orthogonalLoop=1;jettySize=auto;html=1;" edge="1" parent="WIyWlLk6GJQsqaUBKTNV-1" source="T6HtqVJGuuVrWN2Bbdnl-35" target="T6HtqVJGuuVrWN2Bbdnl-38">
          <mxGeometry relative="1" as="geometry" />
        </mxCell>
        <mxCell id="T6HtqVJGuuVrWN2Bbdnl-35" value="Т-банк" style="rounded=1;whiteSpace=wrap;html=1;" vertex="1" parent="WIyWlLk6GJQsqaUBKTNV-1">
          <mxGeometry x="700" y="320" width="100" height="30" as="geometry" />
        </mxCell>
        <mxCell id="T6HtqVJGuuVrWN2Bbdnl-41" style="edgeStyle=orthogonalEdgeStyle;rounded=0;orthogonalLoop=1;jettySize=auto;html=1;" edge="1" parent="WIyWlLk6GJQsqaUBKTNV-1" source="T6HtqVJGuuVrWN2Bbdnl-36" target="T6HtqVJGuuVrWN2Bbdnl-38">
          <mxGeometry relative="1" as="geometry" />
        </mxCell>
        <mxCell id="T6HtqVJGuuVrWN2Bbdnl-36" value="ГазПромБанк" style="rounded=1;whiteSpace=wrap;html=1;" vertex="1" parent="WIyWlLk6GJQsqaUBKTNV-1">
          <mxGeometry x="700" y="360" width="100" height="30" as="geometry" />
        </mxCell>
        <mxCell id="T6HtqVJGuuVrWN2Bbdnl-44" style="edgeStyle=orthogonalEdgeStyle;rounded=0;orthogonalLoop=1;jettySize=auto;html=1;" edge="1" parent="WIyWlLk6GJQsqaUBKTNV-1" source="T6HtqVJGuuVrWN2Bbdnl-37" target="T6HtqVJGuuVrWN2Bbdnl-38">
          <mxGeometry relative="1" as="geometry" />
        </mxCell>
        <mxCell id="T6HtqVJGuuVrWN2Bbdnl-37" value="???" style="rounded=1;whiteSpace=wrap;html=1;" vertex="1" parent="WIyWlLk6GJQsqaUBKTNV-1">
          <mxGeometry x="700" y="400" width="100" height="30" as="geometry" />
        </mxCell>
        <mxCell id="T6HtqVJGuuVrWN2Bbdnl-45" value="" style="edgeStyle=orthogonalEdgeStyle;rounded=0;orthogonalLoop=1;jettySize=auto;html=1;" edge="1" parent="WIyWlLk6GJQsqaUBKTNV-1" source="T6HtqVJGuuVrWN2Bbdnl-38" target="T6HtqVJGuuVrWN2Bbdnl-33">
          <mxGeometry relative="1" as="geometry" />
        </mxCell>
        <mxCell id="T6HtqVJGuuVrWN2Bbdnl-38" value="Каждый банк имеет свою реализацию API" style="rounded=1;whiteSpace=wrap;html=1;" vertex="1" parent="WIyWlLk6GJQsqaUBKTNV-1">
          <mxGeometry x="540" y="305" width="120" height="60" as="geometry" />
        </mxCell>
      </root>
    </mxGraphModel>
  </diagram>
</mxfile>
